# xmcd
#
# Track frame offsets: 
#        150
#        13869
#        32910
#        46179
#        63615
#        81436
#        98595
#        114444
#        129642
#        144403
#        163313
#        178860
#
# Disc length: 2594 seconds
#
# Revision: 2
# Processed by: cddbd v1.5.2PL0 Copyright (c) Steve Scherf et al.
# Submitted via: ExactAudioCopy v0.99pb4
#
DISCID=a70a200c
DTITLE=Владимир Асмолов - Такова селяви или SEX по-русски
DYEAR=2000
DGENRE=Chanson
TTITLE0=Секс по-русски
TTITLE1=Говори обо мне
TTITLE2=Русская баня
TTITLE3=Секс по телефону
TTITLE4=Секс-машина
TTITLE5=Акапулько
TTITLE6=Такова селяви
TTITLE7=Негатив
TTITLE8=Мисс-грудь
TTITLE9=Верблюд
TTITLE10=Последний полёт
TTITLE11=Попугай
EXTD=Альбом ресторанной музыки № 05\n2000 Master Sound [MSCD 296/00]
EXTT0=
EXTT1=
EXTT2=
EXTT3=
EXTT4=
EXTT5=
EXTT6=
EXTT7=
EXTT8=
EXTT9=
EXTT10=
EXTT11=
PLAYORDER=
